<svg id="Laag_1" data-name="Laag 1" xmlns="http://www.w3.org/2000/svg" viewBox="0 0 616.86 616.86"><defs><style>.cls-1{fill:#e02727;}</style></defs><path class="cls-1" d="M327.74,616.86H289.17a34.15,34.15,0,0,0-4.63-1c-32.87-2.44-64.75-9.48-94.86-22.87C88.1,547.84,26.08,470.78,4.63,361.52c-2.19-11.17-3.17-22.58-4.72-33.88V289.08c.36-1.94.78-3.88,1.08-5.84,2.29-14.85,3.54-29.94,7-44.51C47,73.31,207.81-28.27,374.3,7,510.72,35.85,612.68,157.49,616.79,296.76c2.4,81.34-22.68,153.36-76.27,214.7C492.91,566,433,599.51,361.61,612.18,350.4,614.17,339,615.32,327.74,616.86Zm241-308.35c.13-143.63-116-260-259.89-260.43S48.27,164.28,48.13,308.2C48,451.77,164.2,568.25,308,568.65S568.65,452.43,568.79,308.51Z"/><path class="cls-1" d="M274.26,308.2c-23.55-23.51-46.69-46.36-69.42-69.6a33.2,33.2,0,0,1-8.25-14.2c-2.66-10.33,2.54-20.45,11.54-25.54a24,24,0,0,1,28.43,3.64c10.41,10,20.51,20.37,30.73,30.58l36.65,36.61c1.39,1.38,2.86,2.67,4.56,4.25,1.81-1.72,3.42-3.16,4.95-4.69q32.6-32.56,65.15-65.17c7.32-7.36,15.88-10.14,25.79-7,16.46,5.16,22,25.38,10.64,38.64-4,4.71-8.66,8.93-13.07,13.33-19.58,19.57-39.19,39.13-59.25,59.16,1.66,1.77,3.08,3.36,4.58,4.86,22,22,44.11,43.9,66,66.06,13.37,13.56,8.76,34.84-8.64,40.49-10.16,3.31-18.81.33-26.28-7.2-21.5-21.65-43.15-43.16-64.68-64.78-1.54-1.55-2.61-3.56-4.18-5.73-2.68,2.5-4.28,3.92-5.8,5.43Q270.85,380.06,238,412.84c-8.79,8.74-20.56,10.49-30.24,4.82-14-8.17-16-26.59-4.07-38.63,21.76-22,43.7-43.75,65.55-65.62C270.82,311.88,272.28,310.28,274.26,308.2Z"/></svg>