<svg id="Laag_1" data-name="Laag 1" xmlns="http://www.w3.org/2000/svg" viewBox="0 0 616.86 616.86"><defs><style>.cls-1{fill:#f28c1c;}</style></defs><path class="cls-1" d="M289.29,0H327.8c1.95.36,3.89.77,5.84,1.08,16.58,2.69,33.49,4.11,49.71,8.24C534.82,47.9,632,188.81,614.37,344.25c-8.11,71.51-38.22,132.92-89.53,183.14-90.27,88.37-219.27,114.1-335.33,64.51C87.67,548.38,26.5,470.11,5.14,361.21,3,350.06,2,338.66.42,327.38V288.86c.35-1.74.76-3.47,1-5.22C3.9,268,5.35,252.18,8.9,236.82,36.47,117.5,135,25.12,256.05,4.61,267.07,2.74,278.2,1.52,289.29,0ZM309,48.15C165.7,47.72,49.24,163.6,48.58,307.31,47.91,450.77,164.19,567.65,308,568.09c143.33.45,259.77-115.41,260.48-259.17C569.23,165.45,452.94,48.58,309,48.15Z"/><path class="cls-1" d="M332.62,256.73q0,37.59,0,75.17c0,15.46-10.28,26.58-24.26,26.43-13.82-.16-23.86-11.12-23.86-26.22q0-75.47,0-150.93c0-15.27,9.91-25.93,23.94-26S332.57,165.8,332.6,181Q332.67,218.85,332.62,256.73Z"/><path class="cls-1" d="M308.41,452.64A32.47,32.47,0,1,1,341,420.38,32.37,32.37,0,0,1,308.41,452.64Z"/></svg>